<svg class="icon" viewBox="0 0 1024 256" xmlns="http://www.w3.org/2000/svg">
  <g class="icon--plus">
    <ellipse cy="128" cx="128" ry="128" rx="128" fill="#fff" />
    <path fill="#FF0000" 
          transform="scale(3.4, 3.4) translate(13, -26)"
          d="M26.34375,58.3135452270508L22.91455078125,59.1323928833008 19.939453125,60.3701858520508 17.41845703125,62.0269241333008 15.3515625,64.1026077270508 13.74169921875,66.6382522583008 12.591796875,69.6748733520508 11.90185546875,73.2124710083008 11.671875,77.2510452270508 11.900390625,81.2837600708008 12.5859375,84.8037796020508 13.728515625,87.8111038208008 15.328125,90.3057327270508 17.2265625,92.2642288208008 19.265625,93.6631546020508 21.4453125,94.5025100708008 23.765625,94.7822952270508 26.4916973114014,94.4893264770508 28.9042949676514,93.6104202270508 31.0034160614014,92.1455764770508 32.7890625,90.0947952270508 34.21435546875,87.5928421020508 35.232421875,84.7744827270508 35.84326171875,81.6397171020508 36.046875,78.1885452270508 35.771484375,74.4151077270508 34.9453125,70.8760452270508 33.720703125,67.7471389770508 32.25,65.2041702270508 31.4238262176514,64.1406936645508 30.1640605926514,62.6377639770508 28.4707012176514,60.6953811645508 26.34375,58.3135452270508z M23.578125,29.8604202270508L27.7646484375,30.0713577270508 31.46484375,30.7041702270508 34.6787109375,31.7588577270508 37.40625,33.2354202270508 38.759765625,34.339916229248 39.7265625,35.544017791748 40.306640625,36.847728729248 40.5,38.2510452270508 40.212890625,39.727611541748 39.3515625,40.9697952270508 38.056640625,41.813549041748 36.46875,42.0947952270508 34.640625,41.6260452270508 33.041015625,40.313549041748 30.5859375,37.7822952270508 28.0019512176514,35.215892791748 26.015625,33.7979202270508 23.61328125,32.989330291748 20.8125,32.7197952270508 17.126953125,33.170970916748 14.4140625,34.5244827270508 12.7441396713257,36.417064666748 12.1875,38.4854202270508 12.8085927963257,40.670970916748 14.6718759536743,43.1026077270508 16.2919921875,44.539623260498 18.66796875,46.295970916748 21.7998046875,48.371654510498 25.6875,50.7666702270508 30.6650390625,53.9219436645508 34.76953125,56.9658889770508 38.0009765625,59.8985061645508 40.359375,62.7197952270508 42.041015625,65.5498733520508 43.2421875,68.5088577270508 43.962890625,71.5967483520508 44.203125,74.8135452270508 43.79443359375,79.4409866333008 42.568359375,83.7139358520508 40.52490234375,87.6323928833008 37.6640625,91.1963577270508 34.24658203125,94.1597366333008 30.533203125,96.2764358520508 26.52392578125,97.5464553833008 22.21875,97.9697952270508 18.35009765625,97.6182327270508 14.806640625,96.5635452270508 11.58837890625,94.8057327270508 8.6953125,92.3447952270508 6.30615234375,89.3682327270508 4.599609375,86.0635452270508 3.57568359375,82.4307327270508 3.23437523841858,78.4697952270508 3.78515601158142,73.6006546020508 5.43749952316284,68.8369827270508 8.19140625,64.5420608520508 12.046875,61.0791702270508 14.4375,59.6231155395508 17.203125,58.3018264770508 20.34375,57.1153030395508 23.859375,56.0635452270508 19.828125,52.5947952270508 16.6875,50.097240447998 14.1562490463257,47.901439666748 12.2343740463257,46.007396697998 10.921875,44.4151077270508 9.41015625,41.631908416748 8.90625,39.0479202270508 9.1259765625,37.275463104248 9.78515625,35.614330291748 10.8837890625,34.064525604248 12.4218740463257,32.6260452270508 14.4374990463257,31.4160842895508 16.96875,30.5518264770508 20.015625,30.0332717895508 23.578125,29.8604202270508z" />
  </g>
</svg>