<?xml version="1.0" encoding="UTF-8" standalone="no"?>
<svg xmlns="http://www.w3.org/2000/svg" version="1.1" width="256" height="256">
  <g transform="matrix(16,0,0,16,-1251.2,-1044.8)">
    <circle cx="86.2" cy="73.3" r="8" style="fill:#fff" />
    <path d="m 89.5,68.3 -0.3,0.1 c -0.4,-0.4 -0.9,-0.7 -1.6,-0.9 -0.7,-0.2 -1.2,-0.4 -1.8,-0.4 -0.5,0 -1,0.1 -1.3,0.3 -0.3,0.2 -0.5,0.5 -0.5,0.8 0,0.6 0.6,1.1 1.7,1.6 1.2,0.5 2.2,1 2.9,1.5 0.7,0.4 1.2,1 1.6,1.7 0.4,0.7 0.6,1.4 0.6,2.3 0,1.3 -0.4,2.4 -1.3,3.5 -0.9,1 -2,1.6 -3.5,1.6 -1.3,0 -2.4,-0.4 -3.1,-1.3 -0.8,-0.8 -1.2,-1.9 -1.2,-3.3 0,-1.3 0.4,-2.4 1.2,-3.3 0.8,-0.9 1.7,-1.4 2.8,-1.4 0.2,0 0.5,0 0.9,0.1 -1.7,-0.7 -2.7,-1.2 -3.1,-1.5 -0.4,-0.4 -0.6,-0.8 -0.6,-1.3 0,-0.6 0.3,-1.2 1,-1.5 0.7,-0.4 1.6,-0.6 2.9,-0.6 0.8,0 1.7,0.1 2.7,0.3 -0.1,0.5 -0.1,0.8 -0.1,0.9 0.1,0.1 0.1,0.4 0.1,0.9 z M 86,71.7 c -0.7,0 -1.4,0.3 -1.8,0.8 -0.4,0.5 -0.7,1.3 -0.7,2.3 0,1.3 0.3,2.5 0.8,3.4 0.5,0.9 1.3,1.3 2.3,1.3 0.8,0 1.4,-0.3 1.9,-0.9 0.4,-0.6 0.7,-1.5 0.7,-2.7 0,-1.5 -0.3,-2.5 -0.9,-3.2 -0.6,-0.7 -1.3,-1 -2.2,-1 z"
          style="fill:#f00" />
  </g>
</svg>
