<?xml version="1.0" encoding="UTF-8" standalone="no"?>
<svg
   xmlns:dc="http://purl.org/dc/elements/1.1/"
   xmlns:cc="http://creativecommons.org/ns#"
   xmlns:rdf="http://www.w3.org/1999/02/22-rdf-syntax-ns#"
   xmlns:svg="http://www.w3.org/2000/svg"
   xmlns="http://www.w3.org/2000/svg"
   xmlns:sodipodi="http://sodipodi.sourceforge.net/DTD/sodipodi-0.dtd"
   xmlns:inkscape="http://www.inkscape.org/namespaces/inkscape"
   version="1.1"
   id="svg8525"
   sodipodi:docname="delta-opt.svg"
   width="256"
   height="256"
   inkscape:version="0.92.1 r15371">
  <metadata
     id="metadata8531">
    <rdf:RDF>
      <cc:Work
         rdf:about="">
        <dc:format>image/svg+xml</dc:format>
        <dc:type
           rdf:resource="http://purl.org/dc/dcmitype/StillImage" />
        <dc:title></dc:title>
      </cc:Work>
    </rdf:RDF>
  </metadata>
  <defs
     id="defs8529" />
  <sodipodi:namedview
     pagecolor="#ffffff"
     bordercolor="#666666"
     borderopacity="1"
     objecttolerance="10"
     gridtolerance="10"
     guidetolerance="10"
     inkscape:pageopacity="0"
     inkscape:pageshadow="2"
     inkscape:window-width="2560"
     inkscape:window-height="1387"
     id="namedview8527"
     showgrid="false"
     inkscape:pagecheckerboard="true"
     inkscape:zoom="2.36"
     inkscape:cx="37.259672"
     inkscape:cy="116.62108"
     inkscape:window-x="-8"
     inkscape:window-y="-8"
     inkscape:window-maximized="1"
     inkscape:current-layer="svg8525" />
  <g
     id="g8523"
     transform="matrix(16,0,0,16,-1251.2,-1044.8)">
    <circle
       cx="86.199997"
       cy="73.300003"
       r="8"
       id="circle8519"
       style="fill:#ffffff" />
    <path
       d="m 89.5,68.3 -0.3,0.1 c -0.4,-0.4 -0.9,-0.7 -1.6,-0.9 -0.7,-0.2 -1.2,-0.4 -1.8,-0.4 -0.5,0 -1,0.1 -1.3,0.3 -0.3,0.2 -0.5,0.5 -0.5,0.8 0,0.6 0.6,1.1 1.7,1.6 1.2,0.5 2.2,1 2.9,1.5 0.7,0.4 1.2,1 1.6,1.7 0.4,0.7 0.6,1.4 0.6,2.3 0,1.3 -0.4,2.4 -1.3,3.5 -0.9,1 -2,1.6 -3.5,1.6 -1.3,0 -2.4,-0.4 -3.1,-1.3 -0.8,-0.8 -1.2,-1.9 -1.2,-3.3 0,-1.3 0.4,-2.4 1.2,-3.3 0.8,-0.9 1.7,-1.4 2.8,-1.4 0.2,0 0.5,0 0.9,0.1 -1.7,-0.7 -2.7,-1.2 -3.1,-1.5 -0.4,-0.4 -0.6,-0.8 -0.6,-1.3 0,-0.6 0.3,-1.2 1,-1.5 0.7,-0.4 1.6,-0.6 2.9,-0.6 0.8,0 1.7,0.1 2.7,0.3 -0.1,0.5 -0.1,0.8 -0.1,0.9 0.1,0.1 0.1,0.4 0.1,0.9 z M 86,71.7 c -0.7,0 -1.4,0.3 -1.8,0.8 -0.4,0.5 -0.7,1.3 -0.7,2.3 0,1.3 0.3,2.5 0.8,3.4 0.5,0.9 1.3,1.3 2.3,1.3 0.8,0 1.4,-0.3 1.9,-0.9 0.4,-0.6 0.7,-1.5 0.7,-2.7 0,-1.5 -0.3,-2.5 -0.9,-3.2 -0.6,-0.7 -1.3,-1 -2.2,-1 z"
       style="fill:#ff0000;stroke-width:0"
       id="path8521"
       inkscape:connector-curvature="0" />
  </g>
</svg>
